<?xml version="1.0" encoding="UTF-8"?><svg xmlns="http://www.w3.org/2000/svg" xmlns:xlink="http://www.w3.org/1999/xlink" fill-opacity="1" color-rendering="auto" color-interpolation="auto" text-rendering="auto" stroke="black" stroke-linecap="square" width="2864" stroke-miterlimit="10" shape-rendering="auto" stroke-opacity="1" fill="black" stroke-dasharray="none" font-weight="normal" stroke-width="1" height="563" font-family="'Dialog'" font-style="normal" stroke-linejoin="miter" font-size="12px" stroke-dashoffset="0" image-rendering="auto">
  <!--Generated by ySVG 2.6-->
  <defs id="genericDefs"/>
  <g>
    <defs id="defs1">
      <clipPath clipPathUnits="userSpaceOnUse" id="clipPath1">
        <path d="M0 0 L2864 0 L2864 563 L0 563 L0 0 Z"/>
      </clipPath>
      <clipPath clipPathUnits="userSpaceOnUse" id="clipPath2">
        <path d="M5 -15 L2869 -15 L2869 548 L5 548 L5 -15 Z"/>
      </clipPath>
    </defs>
    <g fill="white" text-rendering="geometricPrecision" shape-rendering="geometricPrecision" transform="translate(-5,15)" stroke="white">
      <rect x="5" width="2864" height="563" y="-15" clip-path="url(#clipPath2)" stroke="none"/>
    </g>
    <g fill="rgb(255,204,0)" text-rendering="geometricPrecision" shape-rendering="geometricPrecision" transform="matrix(1,0,0,1,-5,15)" stroke="rgb(255,204,0)">
      <rect x="662.5179" width="68.6562" height="30" y="61" clip-path="url(#clipPath2)" stroke="none"/>
    </g>
    <g text-rendering="geometricPrecision" stroke-miterlimit="1.45" shape-rendering="geometricPrecision" transform="matrix(1,0,0,1,-5,15)" stroke-linecap="butt">
      <rect fill="none" x="662.5179" width="68.6562" height="30" y="61" clip-path="url(#clipPath2)"/>
      <text x="669.5179" xml:space="preserve" y="80.7139" clip-path="url(#clipPath2)" font-family="sans-serif" stroke="none">Хранение</text>
    </g>
    <g fill="rgb(255,204,0)" text-rendering="geometricPrecision" shape-rendering="geometricPrecision" transform="matrix(1,0,0,1,-5,15)" stroke="rgb(255,204,0)">
      <rect x="1476.9887" width="112.2559" height="30" y="61" clip-path="url(#clipPath2)" stroke="none"/>
    </g>
    <g text-rendering="geometricPrecision" stroke-miterlimit="1.45" shape-rendering="geometricPrecision" transform="matrix(1,0,0,1,-5,15)" stroke-linecap="butt">
      <rect fill="none" x="1476.9887" width="112.2559" height="30" y="61" clip-path="url(#clipPath2)"/>
      <text x="1483.9888" xml:space="preserve" y="80.7139" clip-path="url(#clipPath2)" font-family="sans-serif" stroke="none">Прогнозирование</text>
    </g>
    <g fill="rgb(255,204,0)" text-rendering="geometricPrecision" shape-rendering="geometricPrecision" transform="matrix(1,0,0,1,-5,15)" stroke="rgb(255,204,0)">
      <rect x="138.3226" width="449.0938" height="30" y="128.7012" clip-path="url(#clipPath2)" stroke="none"/>
    </g>
    <g text-rendering="geometricPrecision" stroke-miterlimit="1.45" shape-rendering="geometricPrecision" transform="matrix(1,0,0,1,-5,15)" stroke-linecap="butt">
      <rect fill="none" x="138.3226" width="449.0938" height="30" y="128.7012" clip-path="url(#clipPath2)"/>
      <text x="145.3226" xml:space="preserve" y="148.415" clip-path="url(#clipPath2)" font-family="sans-serif" stroke="none">Данные поступают и хранятся в строгой очередности и имеют метку времени</text>
    </g>
    <g fill="rgb(255,204,0)" text-rendering="geometricPrecision" shape-rendering="geometricPrecision" transform="matrix(1,0,0,1,-5,15)" stroke="rgb(255,204,0)">
      <rect x="200.2737" width="325.1914" height="30" y="203.1035" clip-path="url(#clipPath2)" stroke="none"/>
    </g>
    <g text-rendering="geometricPrecision" stroke-miterlimit="1.45" shape-rendering="geometricPrecision" transform="matrix(1,0,0,1,-5,15)" stroke-linecap="butt">
      <rect fill="none" x="200.2737" width="325.1914" height="30" y="203.1035" clip-path="url(#clipPath2)"/>
      <text x="207.2737" xml:space="preserve" y="222.8174" clip-path="url(#clipPath2)" font-family="sans-serif" stroke="none">Сохранение выполняется как вставка, а не обновление</text>
    </g>
    <g fill="rgb(255,204,0)" text-rendering="geometricPrecision" shape-rendering="geometricPrecision" transform="matrix(1,0,0,1,-5,15)" stroke="rgb(255,204,0)">
      <rect x="617.4165" width="386.375" height="43.4023" y="122" clip-path="url(#clipPath2)" stroke="none"/>
    </g>
    <g text-rendering="geometricPrecision" stroke-miterlimit="1.45" shape-rendering="geometricPrecision" transform="matrix(1,0,0,1,-5,15)" stroke-linecap="butt">
      <rect fill="none" x="617.4165" width="386.375" height="43.4023" y="122" clip-path="url(#clipPath2)"/>
      <text x="624.4164" xml:space="preserve" y="141.0645" clip-path="url(#clipPath2)" font-family="sans-serif" stroke="none">Одной из фундаментальных основ реляционной модели является</text>
      <text x="634.7875" xml:space="preserve" y="155.7656" clip-path="url(#clipPath2)" font-family="sans-serif" stroke="none">понятие отношения — неупорядоченного множества кортежей</text>
    </g>
    <g fill="rgb(255,204,0)" text-rendering="geometricPrecision" shape-rendering="geometricPrecision" transform="matrix(1,0,0,1,-5,15)" stroke="rgb(255,204,0)">
      <rect x="555.4655" width="328.2324" height="43.4023" y="196.4023" clip-path="url(#clipPath2)" stroke="none"/>
    </g>
    <g text-rendering="geometricPrecision" stroke-miterlimit="1.45" shape-rendering="geometricPrecision" transform="matrix(1,0,0,1,-5,15)" stroke-linecap="butt">
      <rect fill="none" x="555.4655" width="328.2324" height="43.4023" y="196.4023" clip-path="url(#clipPath2)"/>
      <text x="562.4655" xml:space="preserve" y="215.4668" clip-path="url(#clipPath2)" font-family="sans-serif" stroke="none">Наличие индексов в таблицах реляционных баз данных</text>
      <text x="579.4548" xml:space="preserve" y="230.168" clip-path="url(#clipPath2)" font-family="sans-serif" stroke="none">делает их медленными при росте объема данных</text>
    </g>
    <g fill="rgb(255,204,0)" text-rendering="geometricPrecision" shape-rendering="geometricPrecision" transform="matrix(1,0,0,1,-5,15)" stroke="rgb(255,204,0)">
      <rect x="263.7679" width="396.4062" height="43.4023" y="271.4541" clip-path="url(#clipPath2)" stroke="none"/>
    </g>
    <g text-rendering="geometricPrecision" stroke-miterlimit="1.45" shape-rendering="geometricPrecision" transform="matrix(1,0,0,1,-5,15)" stroke-linecap="butt">
      <rect fill="none" x="263.7679" width="396.4062" height="43.4023" y="271.4541" clip-path="url(#clipPath2)"/>
      <text x="270.7679" xml:space="preserve" y="290.5186" clip-path="url(#clipPath2)" font-family="sans-serif" stroke="none">Реляционные базы данных не способны в полной мере обеспечить </text>
      <text x="309.3197" xml:space="preserve" y="305.2197" clip-path="url(#clipPath2)" font-family="sans-serif" stroke="none">эффективное хранение и обработку временных рядов</text>
    </g>
    <g fill="rgb(255,204,0)" text-rendering="geometricPrecision" shape-rendering="geometricPrecision" transform="matrix(1,0,0,1,-5,15)" stroke="rgb(255,204,0)">
      <rect x="529.8761" width="95.8906" height="30" y="345.8564" clip-path="url(#clipPath2)" stroke="none"/>
    </g>
    <g text-rendering="geometricPrecision" stroke-miterlimit="1.45" shape-rendering="geometricPrecision" transform="matrix(1,0,0,1,-5,15)" stroke-linecap="butt">
      <rect fill="none" x="529.8761" width="95.8906" height="30" y="345.8564" clip-path="url(#clipPath2)"/>
      <text x="536.8761" xml:space="preserve" y="365.5703" clip-path="url(#clipPath2)" font-family="sans-serif" stroke="none">преимущества</text>
    </g>
    <g fill="rgb(255,204,0)" text-rendering="geometricPrecision" shape-rendering="geometricPrecision" transform="matrix(1,0,0,1,-5,15)" stroke="rgb(255,204,0)">
      <rect x="20.0001" width="343.2324" height="43.4023" y="406.8564" clip-path="url(#clipPath2)" stroke="none"/>
    </g>
    <g text-rendering="geometricPrecision" stroke-miterlimit="1.45" shape-rendering="geometricPrecision" transform="matrix(1,0,0,1,-5,15)" stroke-linecap="butt">
      <rect fill="none" x="20.0001" width="343.2324" height="43.4023" y="406.8564" clip-path="url(#clipPath2)"/>
      <text x="27.0001" xml:space="preserve" y="425.9209" clip-path="url(#clipPath2)" font-family="sans-serif" stroke="none">Временной ряд можно легко связать с соответствующими </text>
      <text x="60.1553" xml:space="preserve" y="440.6221" clip-path="url(#clipPath2)" font-family="sans-serif" stroke="none">перекрестными данными этой же базы данных</text>
    </g>
    <g fill="rgb(255,204,0)" text-rendering="geometricPrecision" shape-rendering="geometricPrecision" transform="matrix(1,0,0,1,-5,15)" stroke="rgb(255,204,0)">
      <rect x="792.4104" width="333.7402" height="43.4023" y="406.8564" clip-path="url(#clipPath2)" stroke="none"/>
    </g>
    <g text-rendering="geometricPrecision" stroke-miterlimit="1.45" shape-rendering="geometricPrecision" transform="matrix(1,0,0,1,-5,15)" stroke-linecap="butt">
      <rect fill="none" x="792.4104" width="333.7402" height="43.4023" y="406.8564" clip-path="url(#clipPath2)"/>
      <text x="799.4105" xml:space="preserve" y="425.9209" clip-path="url(#clipPath2)" font-family="sans-serif" stroke="none">Иерархические данные временных рядов естественным </text>
      <text x="824.8343" xml:space="preserve" y="440.6221" clip-path="url(#clipPath2)" font-family="sans-serif" stroke="none">образом встраиваются в реляционные таблицы</text>
    </g>
    <g fill="rgb(255,204,0)" text-rendering="geometricPrecision" shape-rendering="geometricPrecision" transform="matrix(1,0,0,1,-5,15)" stroke="rgb(255,204,0)">
      <rect x="393.2326" width="369.1777" height="30" y="413.5576" clip-path="url(#clipPath2)" stroke="none"/>
    </g>
    <g text-rendering="geometricPrecision" stroke-miterlimit="1.45" shape-rendering="geometricPrecision" transform="matrix(1,0,0,1,-5,15)" stroke-linecap="butt">
      <rect fill="none" x="393.2326" width="369.1777" height="30" y="413.5576" clip-path="url(#clipPath2)"/>
      <text x="400.2326" xml:space="preserve" y="433.2715" clip-path="url(#clipPath2)" font-family="sans-serif" stroke="none">Создание временных рядов на основе транзакционных данных</text>
    </g>
    <g fill="rgb(255,204,0)" text-rendering="geometricPrecision" shape-rendering="geometricPrecision" transform="matrix(1,0,0,1,-5,15)" stroke="rgb(255,204,0)">
      <rect x="951.9726" width="326.0176" height="30" y="0" clip-path="url(#clipPath2)" stroke="none"/>
    </g>
    <g text-rendering="geometricPrecision" stroke-miterlimit="1.45" shape-rendering="geometricPrecision" transform="matrix(1,0,0,1,-5,15)" stroke-linecap="butt">
      <rect fill="none" x="951.9726" width="326.0176" height="30" y="0" clip-path="url(#clipPath2)"/>
      <text x="958.9725" xml:space="preserve" y="19.7139" clip-path="url(#clipPath2)" font-family="sans-serif" stroke="none">Методы хранения и прогнозирования временных рядов</text>
    </g>
    <g fill="rgb(255,204,0)" text-rendering="geometricPrecision" shape-rendering="geometricPrecision" transform="matrix(1,0,0,1,-5,15)" stroke="rgb(255,204,0)">
      <rect x="1433.3565" width="143.3926" height="30" y="128.7012" clip-path="url(#clipPath2)" stroke="none"/>
    </g>
    <g text-rendering="geometricPrecision" stroke-miterlimit="1.45" shape-rendering="geometricPrecision" transform="matrix(1,0,0,1,-5,15)" stroke-linecap="butt">
      <rect fill="none" x="1433.3565" width="143.3926" height="30" y="128.7012" clip-path="url(#clipPath2)"/>
      <text x="1440.3564" xml:space="preserve" y="148.415" clip-path="url(#clipPath2)" font-family="sans-serif" stroke="none">Регрессионная модель</text>
    </g>
    <g fill="rgb(255,204,0)" text-rendering="geometricPrecision" shape-rendering="geometricPrecision" transform="matrix(1,0,0,1,-5,15)" stroke="rgb(255,204,0)">
      <rect x="2167.2368" width="244.2559" height="30" y="128.7012" clip-path="url(#clipPath2)" stroke="none"/>
    </g>
    <g text-rendering="geometricPrecision" stroke-miterlimit="1.45" shape-rendering="geometricPrecision" transform="matrix(1,0,0,1,-5,15)" stroke-linecap="butt">
      <rect fill="none" x="2167.2368" width="244.2559" height="30" y="128.7012" clip-path="url(#clipPath2)"/>
      <text x="2174.2368" xml:space="preserve" y="148.415" clip-path="url(#clipPath2)" font-family="sans-serif" stroke="none">Модель экспоненциального сглаживания</text>
    </g>
    <g fill="rgb(255,204,0)" text-rendering="geometricPrecision" shape-rendering="geometricPrecision" transform="matrix(1,0,0,1,-5,15)" stroke="rgb(255,204,0)">
      <rect x="913.6983" width="177.0898" height="30" y="203.1035" clip-path="url(#clipPath2)" stroke="none"/>
    </g>
    <g text-rendering="geometricPrecision" stroke-miterlimit="1.45" shape-rendering="geometricPrecision" transform="matrix(1,0,0,1,-5,15)" stroke-linecap="butt">
      <rect fill="none" x="913.6983" width="177.0898" height="30" y="203.1035" clip-path="url(#clipPath2)"/>
      <text x="920.6983" xml:space="preserve" y="222.8174" clip-path="url(#clipPath2)" font-family="sans-serif" stroke="none">Простая линейная регрессия</text>
    </g>
    <g fill="rgb(255,204,0)" text-rendering="geometricPrecision" shape-rendering="geometricPrecision" transform="matrix(1,0,0,1,-5,15)" stroke="rgb(255,204,0)">
      <rect x="1423.7647" width="162.5762" height="30" y="203.1035" clip-path="url(#clipPath2)" stroke="none"/>
    </g>
    <g text-rendering="geometricPrecision" stroke-miterlimit="1.45" shape-rendering="geometricPrecision" transform="matrix(1,0,0,1,-5,15)" stroke-linecap="butt">
      <rect fill="none" x="1423.7647" width="162.5762" height="30" y="203.1035" clip-path="url(#clipPath2)"/>
      <text x="1430.7646" xml:space="preserve" y="222.8174" clip-path="url(#clipPath2)" font-family="sans-serif" stroke="none">Множественная регрессия</text>
    </g>
    <g fill="rgb(255,204,0)" text-rendering="geometricPrecision" shape-rendering="geometricPrecision" transform="matrix(1,0,0,1,-5,15)" stroke="rgb(255,204,0)">
      <rect x="1844.4395" width="142.4551" height="30" y="203.1035" clip-path="url(#clipPath2)" stroke="none"/>
    </g>
    <g text-rendering="geometricPrecision" stroke-miterlimit="1.45" shape-rendering="geometricPrecision" transform="matrix(1,0,0,1,-5,15)" stroke-linecap="butt">
      <rect fill="none" x="1844.4395" width="142.4551" height="30" y="203.1035" clip-path="url(#clipPath2)"/>
      <text x="1851.4396" xml:space="preserve" y="222.8174" clip-path="url(#clipPath2)" font-family="sans-serif" stroke="none">Нелинейная регрессия</text>
    </g>
    <g fill="rgb(255,204,0)" text-rendering="geometricPrecision" shape-rendering="geometricPrecision" transform="matrix(1,0,0,1,-5,15)" stroke="rgb(255,204,0)">
      <rect x="785.8012" width="281.9316" height="30" y="278.1553" clip-path="url(#clipPath2)" stroke="none"/>
    </g>
    <g text-rendering="geometricPrecision" stroke-miterlimit="1.45" shape-rendering="geometricPrecision" transform="matrix(1,0,0,1,-5,15)" stroke-linecap="butt">
      <rect fill="none" x="785.8012" width="281.9316" height="30" y="278.1553" clip-path="url(#clipPath2)"/>
      <text x="792.8013" xml:space="preserve" y="297.8691" clip-path="url(#clipPath2)" font-family="sans-serif" stroke="none">Существование дискретного внешнего фактора</text>
    </g>
    <g fill="rgb(255,204,0)" text-rendering="geometricPrecision" shape-rendering="geometricPrecision" transform="matrix(1,0,0,1,-5,15)" stroke="rgb(255,204,0)">
      <rect x="681.7506" width="598.0742" height="30" y="345.8564" clip-path="url(#clipPath2)" stroke="none"/>
    </g>
    <g text-rendering="geometricPrecision" stroke-miterlimit="1.45" shape-rendering="geometricPrecision" transform="matrix(1,0,0,1,-5,15)" stroke-linecap="butt">
      <rect fill="none" x="681.7506" width="598.0742" height="30" y="345.8564" clip-path="url(#clipPath2)"/>
      <text x="688.7506" xml:space="preserve" y="365.5703" clip-path="url(#clipPath2)" font-family="sans-serif" stroke="none">Модель прогнозирования временного ряда на основании линейной регрессии описывается уравнением</text>
    </g>
    <g fill="rgb(255,204,0)" text-rendering="geometricPrecision" shape-rendering="geometricPrecision" transform="matrix(1,0,0,1,-5,15)" stroke="rgb(255,204,0)">
      <rect x="1156.1507" width="243.5176" height="30" y="413.5576" clip-path="url(#clipPath2)" stroke="none"/>
    </g>
    <g text-rendering="geometricPrecision" stroke-miterlimit="1.45" shape-rendering="geometricPrecision" transform="matrix(1,0,0,1,-5,15)" stroke-linecap="butt">
      <rect fill="none" x="1156.1507" width="243.5176" height="30" y="413.5576" clip-path="url(#clipPath2)"/>
      <text x="1163.1508" xml:space="preserve" y="433.2715" clip-path="url(#clipPath2)" font-family="sans-serif" stroke="none">пример построения линейной регрессии.</text>
    </g>
    <g fill="rgb(255,204,0)" text-rendering="geometricPrecision" shape-rendering="geometricPrecision" transform="matrix(1,0,0,1,-5,15)" stroke="rgb(255,204,0)">
      <rect x="1288.5069" width="433.0918" height="30" y="278.1553" clip-path="url(#clipPath2)" stroke="none"/>
    </g>
    <g text-rendering="geometricPrecision" stroke-miterlimit="1.45" shape-rendering="geometricPrecision" transform="matrix(1,0,0,1,-5,15)" stroke-linecap="butt">
      <rect fill="none" x="1288.5069" width="433.0918" height="30" y="278.1553" clip-path="url(#clipPath2)"/>
      <text x="1295.5068" xml:space="preserve" y="297.8691" clip-path="url(#clipPath2)" font-family="sans-serif" stroke="none">На процесс оказывают влияние множество дискретных внешних факторов</text>
    </g>
    <g fill="rgb(255,204,0)" text-rendering="geometricPrecision" shape-rendering="geometricPrecision" transform="matrix(1,0,0,1,-5,15)" stroke="rgb(255,204,0)">
      <rect x="1585.5402" width="118.1445" height="30" y="345.8564" clip-path="url(#clipPath2)" stroke="none"/>
    </g>
    <g text-rendering="geometricPrecision" stroke-miterlimit="1.45" shape-rendering="geometricPrecision" transform="matrix(1,0,0,1,-5,15)" stroke-linecap="butt">
      <rect fill="none" x="1585.5402" width="118.1445" height="30" y="345.8564" clip-path="url(#clipPath2)"/>
      <text x="1592.5403" xml:space="preserve" y="365.5703" clip-path="url(#clipPath2)" font-family="sans-serif" stroke="none">Модель имеет вид</text>
    </g>
    <g fill="rgb(255,204,0)" text-rendering="geometricPrecision" shape-rendering="geometricPrecision" transform="matrix(1,0,0,1,-5,15)" stroke="rgb(255,204,0)">
      <rect x="1846.7457" width="275.6855" height="30" y="278.1553" clip-path="url(#clipPath2)" stroke="none"/>
    </g>
    <g text-rendering="geometricPrecision" stroke-miterlimit="1.45" shape-rendering="geometricPrecision" transform="matrix(1,0,0,1,-5,15)" stroke-linecap="butt">
      <rect fill="none" x="1846.7457" width="275.6855" height="30" y="278.1553" clip-path="url(#clipPath2)"/>
      <text x="1853.7457" xml:space="preserve" y="297.8691" clip-path="url(#clipPath2)" font-family="sans-serif" stroke="none">Гипотеза о существовании известной функции</text>
    </g>
    <g fill="rgb(255,204,0)" text-rendering="geometricPrecision" shape-rendering="geometricPrecision" transform="matrix(1,0,0,1,-5,15)" stroke="rgb(255,204,0)">
      <rect x="1896.8379" width="351.002" height="43.4023" y="339.1553" clip-path="url(#clipPath2)" stroke="none"/>
    </g>
    <g text-rendering="geometricPrecision" stroke-miterlimit="1.45" shape-rendering="geometricPrecision" transform="matrix(1,0,0,1,-5,15)" stroke-linecap="butt">
      <rect fill="none" x="1896.8379" width="351.002" height="43.4023" y="339.1553" clip-path="url(#clipPath2)"/>
      <text x="1903.8379" xml:space="preserve" y="358.2197" clip-path="url(#clipPath2)" font-family="sans-serif" stroke="none">Применяются не часто, так как малая часть процессов, вид </text>
      <text x="1912.3809" xml:space="preserve" y="372.9209" clip-path="url(#clipPath2)" font-family="sans-serif" stroke="none">функциональной зависимости которых заранее известен</text>
    </g>
    <g fill="rgb(255,204,0)" text-rendering="geometricPrecision" shape-rendering="geometricPrecision" transform="matrix(1,0,0,1,-5,15)" stroke="rgb(255,204,0)">
      <rect x="2112.0414" width="354.6465" height="58.1035" y="189.0518" clip-path="url(#clipPath2)" stroke="none"/>
    </g>
    <g text-rendering="geometricPrecision" stroke-miterlimit="1.45" shape-rendering="geometricPrecision" transform="matrix(1,0,0,1,-5,15)" stroke-linecap="butt">
      <rect fill="none" x="2112.0414" width="354.6465" height="58.1035" y="189.0518" clip-path="url(#clipPath2)"/>
      <text x="2134.9761" xml:space="preserve" y="208.1162" clip-path="url(#clipPath2)" font-family="sans-serif" stroke="none">Чтобы прогнозирующая система могла автоматически </text>
      <text x="2119.0415" xml:space="preserve" y="222.8174" clip-path="url(#clipPath2)" font-family="sans-serif" stroke="none">распознавать изменения параметров модели, используется </text>
      <text x="2178.9888" xml:space="preserve" y="237.5186" clip-path="url(#clipPath2)" font-family="sans-serif" stroke="none">метод экспоненциального сглаживания</text>
    </g>
    <g fill="rgb(255,204,0)" text-rendering="geometricPrecision" shape-rendering="geometricPrecision" transform="matrix(1,0,0,1,-5,15)" stroke="rgb(255,204,0)">
      <rect x="2369.7657" width="206.2227" height="30" y="278.1553" clip-path="url(#clipPath2)" stroke="none"/>
    </g>
    <g text-rendering="geometricPrecision" stroke-miterlimit="1.45" shape-rendering="geometricPrecision" transform="matrix(1,0,0,1,-5,15)" stroke-linecap="butt">
      <rect fill="none" x="2369.7657" width="206.2227" height="30" y="278.1553" clip-path="url(#clipPath2)"/>
      <text x="2376.7656" xml:space="preserve" y="297.8691" clip-path="url(#clipPath2)" font-family="sans-serif" stroke="none">Сглаженная функция наблюдений</text>
    </g>
    <g fill="rgb(255,204,0)" text-rendering="geometricPrecision" shape-rendering="geometricPrecision" transform="matrix(1,0,0,1,-5,15)" stroke="rgb(255,204,0)">
      <rect x="2282.669" width="380.416" height="30" y="345.8564" clip-path="url(#clipPath2)" stroke="none"/>
    </g>
    <g text-rendering="geometricPrecision" stroke-miterlimit="1.45" shape-rendering="geometricPrecision" transform="matrix(1,0,0,1,-5,15)" stroke-linecap="butt">
      <rect fill="none" x="2282.669" width="380.416" height="30" y="345.8564" clip-path="url(#clipPath2)"/>
      <text x="2289.6689" xml:space="preserve" y="365.5703" clip-path="url(#clipPath2)" font-family="sans-serif" stroke="none">Операция расчета называется экспоненциальным сглаживанием</text>
    </g>
    <g fill="rgb(255,204,0)" text-rendering="geometricPrecision" shape-rendering="geometricPrecision" transform="matrix(1,0,0,1,-5,15)" stroke="rgb(255,204,0)">
      <rect x="2396.9934" width="365.0879" height="30" y="413.5576" clip-path="url(#clipPath2)" stroke="none"/>
    </g>
    <g text-rendering="geometricPrecision" stroke-miterlimit="1.45" shape-rendering="geometricPrecision" transform="matrix(1,0,0,1,-5,15)" stroke-linecap="butt">
      <rect fill="none" x="2396.9934" width="365.0879" height="30" y="413.5576" clip-path="url(#clipPath2)"/>
      <text x="2403.9934" xml:space="preserve" y="433.2715" clip-path="url(#clipPath2)" font-family="sans-serif" stroke="none">Запишем выражение для учета более ранних значений в виде</text>
    </g>
    <g fill="rgb(255,204,0)" text-rendering="geometricPrecision" shape-rendering="geometricPrecision" transform="matrix(1,0,0,1,-5,15)" stroke="rgb(255,204,0)">
      <rect x="2492.5317" width="358.666" height="58.1035" y="474.5576" clip-path="url(#clipPath2)" stroke="none"/>
    </g>
    <g text-rendering="geometricPrecision" stroke-miterlimit="1.45" shape-rendering="geometricPrecision" transform="matrix(1,0,0,1,-5,15)" stroke-linecap="butt">
      <rect fill="none" x="2492.5317" width="358.666" height="58.1035" y="474.5576" clip-path="url(#clipPath2)"/>
      <text x="2499.5317" xml:space="preserve" y="493.6221" clip-path="url(#clipPath2)" font-family="sans-serif" stroke="none">Сглаженная величина является линейной комбинацией всех </text>
      <text x="2530.103" xml:space="preserve" y="508.3232" clip-path="url(#clipPath2)" font-family="sans-serif" stroke="none">значений ряда динамики, вес которых убывает по </text>
      <text x="2556.4028" xml:space="preserve" y="523.0244" clip-path="url(#clipPath2)" font-family="sans-serif" stroke="none">геометрической прогрессии со временем</text>
    </g>
    <g fill="lime" text-rendering="geometricPrecision" shape-rendering="geometricPrecision" transform="matrix(1,0,0,1,-5,15)" stroke="lime">
      <path d="M1097.733 286.9425 L1116.8141 278.1556 L1143.7985 278.1556 L1162.8793 286.9425 L1162.8793 299.3688 L1143.7985 308.1556 L1116.8141 308.1556 L1097.733 299.3688 Z" fill-rule="evenodd" clip-path="url(#clipPath2)" stroke="none"/>
    </g>
    <g text-rendering="geometricPrecision" stroke-miterlimit="1.45" shape-rendering="geometricPrecision" transform="matrix(1,0,0,1,-5,15)" stroke-linecap="butt">
      <path fill="none" d="M1097.733 286.9425 L1116.8141 278.1556 L1143.7985 278.1556 L1162.8793 286.9425 L1162.8793 299.3688 L1143.7985 308.1556 L1116.8141 308.1556 L1097.733 299.3688 Z" fill-rule="evenodd" clip-path="url(#clipPath2)"/>
      <text x="1104.7332" xml:space="preserve" y="297.8691" clip-path="url(#clipPath2)" font-family="sans-serif" stroke="none">формула</text>
    </g>
    <g fill="rgb(204,153,255)" text-rendering="geometricPrecision" shape-rendering="geometricPrecision" transform="matrix(1,0,0,1,-5,15)" stroke="rgb(204,153,255)">
      <path d="M1309.825 354.6429 L1326.792 345.8563 L1350.7864 345.8563 L1367.7529 354.6429 L1367.7529 367.0697 L1350.7864 375.8563 L1326.792 375.8563 L1309.825 367.0697 Z" fill-rule="evenodd" clip-path="url(#clipPath2)" stroke="none"/>
    </g>
    <g text-rendering="geometricPrecision" stroke-miterlimit="1.45" shape-rendering="geometricPrecision" transform="matrix(1,0,0,1,-5,15)" stroke-linecap="butt">
      <path fill="none" d="M1309.825 354.6429 L1326.792 345.8563 L1350.7864 345.8563 L1367.7529 354.6429 L1367.7529 367.0697 L1350.7864 375.8563 L1326.792 375.8563 L1309.825 367.0697 Z" fill-rule="evenodd" clip-path="url(#clipPath2)"/>
      <text x="1316.8251" xml:space="preserve" y="365.5703" clip-path="url(#clipPath2)" font-family="sans-serif" stroke="none">рисунок</text>
    </g>
    <g fill="lime" text-rendering="geometricPrecision" shape-rendering="geometricPrecision" transform="matrix(1,0,0,1,-5,15)" stroke="lime">
      <path d="M1751.6001 286.9421 L1770.6812 278.1552 L1797.6656 278.1552 L1816.7466 286.9421 L1816.7466 299.3686 L1797.6656 308.1554 L1770.6812 308.1554 L1751.6001 299.3686 Z" fill-rule="evenodd" clip-path="url(#clipPath2)" stroke="none"/>
    </g>
    <g text-rendering="geometricPrecision" stroke-miterlimit="1.45" shape-rendering="geometricPrecision" transform="matrix(1,0,0,1,-5,15)" stroke-linecap="butt">
      <path fill="none" d="M1751.6001 286.9421 L1770.6812 278.1552 L1797.6656 278.1552 L1816.7466 286.9421 L1816.7466 299.3686 L1797.6656 308.1554 L1770.6812 308.1554 L1751.6001 299.3686 Z" fill-rule="evenodd" clip-path="url(#clipPath2)"/>
      <text x="1758.599" xml:space="preserve" y="297.8691" clip-path="url(#clipPath2)" font-family="sans-serif" stroke="none">формула</text>
    </g>
    <g fill="lime" text-rendering="geometricPrecision" shape-rendering="geometricPrecision" transform="matrix(1,0,0,1,-5,15)" stroke="lime">
      <path d="M2016.8958 211.8903 L2035.9768 203.1035 L2062.9614 203.1035 L2082.0422 211.8903 L2082.0422 224.3166 L2062.9614 233.1035 L2035.9768 233.1035 L2016.8958 224.3166 Z" fill-rule="evenodd" clip-path="url(#clipPath2)" stroke="none"/>
    </g>
    <g text-rendering="geometricPrecision" stroke-miterlimit="1.45" shape-rendering="geometricPrecision" transform="matrix(1,0,0,1,-5,15)" stroke-linecap="butt">
      <path fill="none" d="M2016.8958 211.8903 L2035.9768 203.1035 L2062.9614 203.1035 L2082.0422 211.8903 L2082.0422 224.3166 L2062.9614 233.1035 L2035.9768 233.1035 L2016.8958 224.3166 Z" fill-rule="evenodd" clip-path="url(#clipPath2)"/>
      <text x="2023.8947" xml:space="preserve" y="222.8174" clip-path="url(#clipPath2)" font-family="sans-serif" stroke="none">формула</text>
    </g>
    <g fill="lime" text-rendering="geometricPrecision" shape-rendering="geometricPrecision" transform="matrix(1,0,0,1,-5,15)" stroke="lime">
      <path d="M2496.6897 211.89 L2515.771 203.1033 L2542.7556 203.1033 L2561.8362 211.89 L2561.8362 224.3166 L2542.7556 233.1033 L2515.771 233.1033 L2496.6897 224.3166 Z" fill-rule="evenodd" clip-path="url(#clipPath2)" stroke="none"/>
    </g>
    <g text-rendering="geometricPrecision" stroke-miterlimit="1.45" shape-rendering="geometricPrecision" transform="matrix(1,0,0,1,-5,15)" stroke-linecap="butt">
      <path fill="none" d="M2496.6897 211.89 L2515.771 203.1033 L2542.7556 203.1033 L2561.8362 211.89 L2561.8362 224.3166 L2542.7556 233.1033 L2515.771 233.1033 L2496.6897 224.3166 Z" fill-rule="evenodd" clip-path="url(#clipPath2)"/>
      <text x="2503.6882" xml:space="preserve" y="222.8174" clip-path="url(#clipPath2)" font-family="sans-serif" stroke="none">формула</text>
    </g>
    <g fill="lime" text-rendering="geometricPrecision" shape-rendering="geometricPrecision" transform="matrix(1,0,0,1,-5,15)" stroke="lime">
      <path d="M2693.0862 354.6436 L2712.1672 345.8567 L2739.1516 345.8567 L2758.2327 354.6436 L2758.2327 367.0699 L2739.1516 375.8567 L2712.1672 375.8567 L2693.0862 367.0699 Z" fill-rule="evenodd" clip-path="url(#clipPath2)" stroke="none"/>
    </g>
    <g text-rendering="geometricPrecision" stroke-miterlimit="1.45" shape-rendering="geometricPrecision" transform="matrix(1,0,0,1,-5,15)" stroke-linecap="butt">
      <path fill="none" d="M2693.0862 354.6436 L2712.1672 345.8567 L2739.1516 345.8567 L2758.2327 354.6436 L2758.2327 367.0699 L2739.1516 375.8567 L2712.1672 375.8567 L2693.0862 367.0699 Z" fill-rule="evenodd" clip-path="url(#clipPath2)"/>
      <text x="2700.0852" xml:space="preserve" y="365.5703" clip-path="url(#clipPath2)" font-family="sans-serif" stroke="none">формула</text>
    </g>
    <g fill="rgb(204,153,255)" text-rendering="geometricPrecision" shape-rendering="geometricPrecision" transform="matrix(1,0,0,1,-5,15)" stroke="rgb(204,153,255)">
      <path d="M2792.0835 422.3444 L2809.0503 413.5576 L2833.0449 413.5576 L2850.0112 422.3444 L2850.0112 434.7709 L2833.0449 443.5576 L2809.0503 443.5576 L2792.0835 434.7709 Z" fill-rule="evenodd" clip-path="url(#clipPath2)" stroke="none"/>
    </g>
    <g text-rendering="geometricPrecision" stroke-miterlimit="1.45" shape-rendering="geometricPrecision" transform="matrix(1,0,0,1,-5,15)" stroke-linecap="butt">
      <path fill="none" d="M2792.0835 422.3444 L2809.0503 413.5576 L2833.0449 413.5576 L2850.0112 422.3444 L2850.0112 434.7709 L2833.0449 443.5576 L2809.0503 443.5576 L2792.0835 434.7709 Z" fill-rule="evenodd" clip-path="url(#clipPath2)"/>
      <text x="2799.0813" xml:space="preserve" y="433.2715" clip-path="url(#clipPath2)" font-family="sans-serif" stroke="none">рисунок</text>
    </g>
    <g fill="rgb(255,102,0)" text-rendering="geometricPrecision" shape-rendering="geometricPrecision" transform="matrix(1,0,0,1,-5,15)" stroke="rgb(255,102,0)">
      <ellipse rx="32.8135" ry="15" clip-path="url(#clipPath2)" cx="907.1976" cy="76" stroke="none"/>
    </g>
    <g text-rendering="geometricPrecision" stroke-miterlimit="1.45" shape-rendering="geometricPrecision" transform="matrix(1,0,0,1,-5,15)" stroke-linecap="butt">
      <ellipse rx="32.8135" fill="none" ry="15" clip-path="url(#clipPath2)" cx="907.1976" cy="76"/>
      <text x="881.3842" xml:space="preserve" y="80.7139" clip-path="url(#clipPath2)" font-family="sans-serif" stroke="none">Источник</text>
    </g>
    <g fill="rgb(255,102,0)" text-rendering="geometricPrecision" shape-rendering="geometricPrecision" transform="matrix(1,0,0,1,-5,15)" stroke="rgb(255,102,0)">
      <ellipse rx="32.8135" ry="15" clip-path="url(#clipPath2)" cx="722.9877" cy="293.1553" stroke="none"/>
    </g>
    <g text-rendering="geometricPrecision" stroke-miterlimit="1.45" shape-rendering="geometricPrecision" transform="matrix(1,0,0,1,-5,15)" stroke-linecap="butt">
      <ellipse rx="32.8135" fill="none" ry="15" clip-path="url(#clipPath2)" cx="722.9877" cy="293.1553"/>
      <text x="697.1742" xml:space="preserve" y="297.8691" clip-path="url(#clipPath2)" font-family="sans-serif" stroke="none">Источник</text>
    </g>
    <g fill="rgb(255,102,0)" text-rendering="geometricPrecision" shape-rendering="geometricPrecision" transform="matrix(1,0,0,1,-5,15)" stroke="rgb(255,102,0)">
      <ellipse rx="32.8135" ry="15" clip-path="url(#clipPath2)" cx="1225.6933" cy="293.1553" stroke="none"/>
    </g>
    <g text-rendering="geometricPrecision" stroke-miterlimit="1.45" shape-rendering="geometricPrecision" transform="matrix(1,0,0,1,-5,15)" stroke-linecap="butt">
      <ellipse rx="32.8135" fill="none" ry="15" clip-path="url(#clipPath2)" cx="1225.6933" cy="293.1553"/>
      <text x="1199.8798" xml:space="preserve" y="297.8691" clip-path="url(#clipPath2)" font-family="sans-serif" stroke="none">Источник</text>
    </g>
    <g fill="rgb(255,102,0)" text-rendering="geometricPrecision" shape-rendering="geometricPrecision" transform="matrix(1,0,0,1,-5,15)" stroke="rgb(255,102,0)">
      <ellipse rx="32.8135" ry="15" clip-path="url(#clipPath2)" cx="2185.2448" cy="293.1553" stroke="none"/>
    </g>
    <g text-rendering="geometricPrecision" stroke-miterlimit="1.45" shape-rendering="geometricPrecision" transform="matrix(1,0,0,1,-5,15)" stroke-linecap="butt">
      <ellipse rx="32.8135" fill="none" ry="15" clip-path="url(#clipPath2)" cx="2185.2448" cy="293.1553"/>
      <text x="2159.4314" xml:space="preserve" y="297.8691" clip-path="url(#clipPath2)" font-family="sans-serif" stroke="none">Источник</text>
    </g>
    <g fill="rgb(255,102,0)" text-rendering="geometricPrecision" shape-rendering="geometricPrecision" transform="matrix(1,0,0,1,-5,15)" stroke="rgb(255,102,0)">
      <ellipse rx="32.8135" ry="15" clip-path="url(#clipPath2)" cx="2821.0452" cy="360.8564" stroke="none"/>
    </g>
    <g text-rendering="geometricPrecision" stroke-miterlimit="1.45" shape-rendering="geometricPrecision" transform="matrix(1,0,0,1,-5,15)" stroke-linecap="butt">
      <ellipse rx="32.8135" fill="none" ry="15" clip-path="url(#clipPath2)" cx="2821.0452" cy="360.8564"/>
      <text x="2795.2317" xml:space="preserve" y="365.5703" clip-path="url(#clipPath2)" font-family="sans-serif" stroke="none">Источник</text>
      <path fill="none" d="M679.6819 91 L679.6819 106.5 L362.8694 106.5 L362.8694 120.6578" clip-path="url(#clipPath2)"/>
      <path d="M362.8694 128.6578 L367.8694 116.6578 L362.8694 119.6578 L357.8694 116.6578 Z" clip-path="url(#clipPath2)" stroke="none"/>
      <path fill="none" d="M362.8694 158.7012 L362.8694 195.0602" clip-path="url(#clipPath2)"/>
      <path d="M362.8694 203.0602 L367.8694 191.0602 L362.8694 194.0602 L357.8694 191.0602 Z" clip-path="url(#clipPath2)" stroke="none"/>
      <path fill="none" d="M714.0101 91 L714.0102 113.9697" clip-path="url(#clipPath2)"/>
      <path d="M714.0102 121.9697 L719.0102 109.9697 L714.0102 112.9697 L709.0102 109.9697 Z" clip-path="url(#clipPath2)" stroke="none"/>
      <path fill="none" d="M810.6039 165.4023 L810.6039 180.9023 L719.5817 180.9023 L719.5817 188.3721" clip-path="url(#clipPath2)"/>
      <path d="M719.5817 196.3721 L724.5817 184.3721 L719.5817 187.3721 L714.5817 184.3721 Z" clip-path="url(#clipPath2)" stroke="none"/>
      <path fill="none" d="M719.5817 239.8047 L719.5817 255.3047 L561.0726 255.3047 L561.0726 263.4225" clip-path="url(#clipPath2)"/>
      <path d="M561.0726 271.4225 L566.0726 259.4225 L561.0726 262.4225 L556.0726 259.4225 Z" clip-path="url(#clipPath2)" stroke="none"/>
      <path fill="none" d="M362.8694 233.1035 L362.8695 263.4167" clip-path="url(#clipPath2)"/>
      <path d="M362.8695 271.4167 L367.8695 259.4167 L362.8695 262.4167 L357.8695 259.4167 Z" clip-path="url(#clipPath2)" stroke="none"/>
      <path fill="none" d="M461.971 314.8564 L461.971 330.3564 L553.8488 330.3564 L553.8488 337.8262" clip-path="url(#clipPath2)"/>
      <path d="M553.8488 345.8262 L558.8488 333.8262 L553.8488 336.8262 L548.8488 333.8262 Z" clip-path="url(#clipPath2)" stroke="none"/>
      <path fill="none" d="M545.8579 375.8564 L545.8579 391.3564 L191.6163 391.3564 L191.6163 398.8262" clip-path="url(#clipPath2)"/>
      <path d="M191.6163 406.8262 L196.6163 394.8262 L191.6163 397.8262 L186.6163 394.8262 Z" clip-path="url(#clipPath2)" stroke="none"/>
      <path fill="none" d="M609.785 375.8564 L609.785 391.3564 L959.2806 391.3564 L959.2806 398.8262" clip-path="url(#clipPath2)"/>
      <path d="M959.2806 406.8262 L964.2806 394.8262 L959.2806 397.8262 L954.2806 394.8262 Z" clip-path="url(#clipPath2)" stroke="none"/>
      <path fill="none" d="M577.8214 375.8564 L577.8214 405.5208" clip-path="url(#clipPath2)"/>
      <path d="M577.8214 413.5208 L582.8214 401.5208 L577.8214 404.5208 L572.8214 401.5208 Z" clip-path="url(#clipPath2)" stroke="none"/>
      <path fill="none" d="M1033.4769 30 L1033.4769 45.5 L696.846 45.5 L696.846 52.9697" clip-path="url(#clipPath2)"/>
      <path d="M696.846 60.9697 L701.846 48.9697 L696.846 51.9697 L691.846 48.9697 Z" clip-path="url(#clipPath2)" stroke="none"/>
      <path fill="none" d="M1196.4857 30 L1196.4857 45.5 L1533.1167 45.5 L1533.1167 52.9697" clip-path="url(#clipPath2)"/>
      <path d="M1533.1167 60.9697 L1538.1167 48.9697 L1533.1167 51.9697 L1528.1167 48.9697 Z" clip-path="url(#clipPath2)" stroke="none"/>
      <path fill="none" d="M1505.0527 91 L1505.0527 120.6644" clip-path="url(#clipPath2)"/>
      <path d="M1505.0527 128.6644 L1510.0527 116.6644 L1505.0527 119.6644 L1500.0527 116.6644 Z" clip-path="url(#clipPath2)" stroke="none"/>
      <path fill="none" d="M1561.1807 91 L1561.1807 106.5 L2289.3647 106.5 L2289.3647 120.6578" clip-path="url(#clipPath2)"/>
      <path d="M2289.3647 128.6578 L2294.3647 116.6578 L2289.3647 119.6578 L2284.3647 116.6578 Z" clip-path="url(#clipPath2)" stroke="none"/>
      <path fill="none" d="M1457.2552 158.7012 L1457.2552 180.9023 L1002.2432 180.9023 L1002.2432 195.0602" clip-path="url(#clipPath2)"/>
      <path d="M1002.2432 203.0602 L1007.2432 191.0602 L1002.2432 194.0602 L997.2432 191.0602 Z" clip-path="url(#clipPath2)" stroke="none"/>
      <path fill="none" d="M1505.0527 158.7012 L1505.0527 195.0602" clip-path="url(#clipPath2)"/>
      <path d="M1505.0527 203.0602 L1510.0527 191.0602 L1505.0527 194.0602 L1500.0527 191.0602 Z" clip-path="url(#clipPath2)" stroke="none"/>
      <path fill="none" d="M1552.8503 158.7012 L1552.8503 174.2012 L1915.6671 174.2012 L1915.6671 195.0753" clip-path="url(#clipPath2)"/>
      <path d="M1915.6671 203.0753 L1920.6671 191.0753 L1915.6671 194.0753 L1910.6671 191.0753 Z" clip-path="url(#clipPath2)" stroke="none"/>
      <path fill="none" d="M1002.2432 233.1035 L1002.2432 248.6035 L926.7671 248.6035 L926.7671 270.1264" clip-path="url(#clipPath2)"/>
      <path d="M926.7671 278.1264 L931.7671 266.1264 L926.7671 269.1264 L921.7671 266.1264 Z" clip-path="url(#clipPath2)" stroke="none"/>
      <path fill="none" d="M926.7671 308.1553 L926.7671 323.6553 L831.2692 323.6553 L831.2692 337.8131" clip-path="url(#clipPath2)"/>
      <path d="M831.2692 345.8131 L836.2692 333.8131 L831.2692 336.8131 L826.2692 333.8131 Z" clip-path="url(#clipPath2)" stroke="none"/>
      <path fill="none" d="M980.7877 375.8564 L980.7877 391.3564 L1217.0302 391.3564 L1217.0302 405.5143" clip-path="url(#clipPath2)"/>
      <path d="M1217.0302 413.5143 L1222.0302 401.5143 L1217.0302 404.5143 L1212.0302 401.5143 Z" clip-path="url(#clipPath2)" stroke="none"/>
      <path fill="none" d="M1505.0527 233.1035 L1505.0527 270.1113" clip-path="url(#clipPath2)"/>
      <path d="M1505.0527 278.1113 L1510.0527 266.1113 L1505.0527 269.1113 L1500.0527 266.1113 Z" clip-path="url(#clipPath2)" stroke="none"/>
      <path fill="none" d="M1505.0527 308.1553 L1505.0527 323.6553 L1615.0764 323.6553 L1615.0764 337.8131" clip-path="url(#clipPath2)"/>
      <path d="M1615.0764 345.8131 L1620.0764 333.8131 L1615.0764 336.8131 L1610.0764 333.8131 Z" clip-path="url(#clipPath2)" stroke="none"/>
      <path fill="none" d="M1915.6671 233.1035 L1915.6671 270.1113" clip-path="url(#clipPath2)"/>
      <path d="M1915.6671 278.1113 L1920.6671 266.1113 L1915.6671 269.1113 L1910.6671 266.1113 Z" clip-path="url(#clipPath2)" stroke="none"/>
      <path fill="none" d="M1984.5885 308.1553 L1984.5884 331.125" clip-path="url(#clipPath2)"/>
      <path d="M1984.5884 339.125 L1989.5884 327.125 L1984.5884 330.125 L1979.5884 327.125 Z" clip-path="url(#clipPath2)" stroke="none"/>
      <path fill="none" d="M2289.3647 158.7012 L2289.3647 181.0221" clip-path="url(#clipPath2)"/>
      <path d="M2289.3647 189.0221 L2294.3647 177.0221 L2289.3647 180.0221 L2284.3647 177.0221 Z" clip-path="url(#clipPath2)" stroke="none"/>
      <path fill="none" d="M2289.3647 247.1553 L2289.3647 262.6553 L2421.3213 262.6553 L2421.3213 270.125" clip-path="url(#clipPath2)"/>
      <path d="M2421.3213 278.125 L2426.3213 266.125 L2421.3213 269.125 L2416.3213 266.125 Z" clip-path="url(#clipPath2)" stroke="none"/>
      <path fill="none" d="M2472.877 308.1553 L2472.877 337.8196" clip-path="url(#clipPath2)"/>
      <path d="M2472.877 345.8196 L2477.877 333.8196 L2472.877 336.8196 L2467.877 333.8196 Z" clip-path="url(#clipPath2)" stroke="none"/>
      <path fill="none" d="M2472.877 375.8564 L2472.877 391.3564 L2488.2654 391.3564 L2488.2654 405.5143" clip-path="url(#clipPath2)"/>
      <path d="M2488.2654 413.5143 L2493.2654 401.5143 L2488.2654 404.5143 L2483.2654 401.5143 Z" clip-path="url(#clipPath2)" stroke="none"/>
      <path fill="none" d="M2579.5374 443.5576 L2579.5374 459.0576 L2582.1982 459.0576 L2582.1982 466.5273" clip-path="url(#clipPath2)"/>
      <path d="M2582.1982 474.5273 L2587.1982 462.5273 L2582.1982 465.5273 L2577.1982 462.5273 Z" clip-path="url(#clipPath2)" stroke="none"/>
      <path fill="none" d="M1130.3064 308.1921 L1130.3063 337.8197" clip-path="url(#clipPath2)"/>
      <path d="M1130.3063 345.8197 L1135.3063 333.8197 L1130.3063 336.8197 L1125.3063 333.8197 Z" clip-path="url(#clipPath2)" stroke="none"/>
      <path fill="none" d="M1338.7889 375.8564 L1338.7889 405.5208" clip-path="url(#clipPath2)"/>
      <path d="M1338.7889 413.5208 L1343.7889 401.5208 L1338.7889 404.5208 L1333.7889 401.5208 Z" clip-path="url(#clipPath2)" stroke="none"/>
      <path fill="none" d="M1784.1722 308.1855 L1784.1722 323.6553 L1674.1487 323.6553 L1674.1487 337.8131" clip-path="url(#clipPath2)"/>
      <path d="M1674.1487 345.8131 L1679.1487 333.8131 L1674.1487 336.8131 L1669.1487 333.8131 Z" clip-path="url(#clipPath2)" stroke="none"/>
      <path fill="none" d="M2049.4678 233.1035 L2049.4678 248.6035 L2053.5098 248.6035 L2053.5098 270.1264" clip-path="url(#clipPath2)"/>
      <path d="M2053.5098 278.1264 L2058.5098 266.1264 L2053.5098 269.1264 L2048.5098 266.1264 Z" clip-path="url(#clipPath2)" stroke="none"/>
      <path fill="none" d="M2529.2615 233.1035 L2529.2615 248.6035 L2524.4326 248.6035 L2524.4326 270.1264" clip-path="url(#clipPath2)"/>
      <path d="M2524.4326 278.1264 L2529.4326 266.1264 L2524.4326 269.1264 L2519.4326 266.1264 Z" clip-path="url(#clipPath2)" stroke="none"/>
      <path fill="none" d="M2725.6584 375.8867 L2725.6584 391.3564 L2670.8093 391.3564 L2670.8093 405.5143" clip-path="url(#clipPath2)"/>
      <path d="M2670.8093 413.5143 L2675.8093 401.5143 L2670.8093 404.5143 L2665.8093 401.5143 Z" clip-path="url(#clipPath2)" stroke="none"/>
      <path fill="none" d="M2821.0452 443.5879 L2821.0452 459.0576 L2761.5312 459.0576 L2761.5312 466.5273" clip-path="url(#clipPath2)"/>
      <path d="M2761.5312 474.5273 L2766.5312 462.5273 L2761.5312 465.5273 L2756.5312 462.5273 Z" clip-path="url(#clipPath2)" stroke="none"/>
      <path fill="none" d="M907.1976 91 L907.1977 113.9697" clip-path="url(#clipPath2)"/>
      <path d="M907.1977 121.9697 L912.1977 109.9697 L907.1977 112.9697 L902.1977 109.9697 Z" clip-path="url(#clipPath2)" stroke="none"/>
      <path fill="none" d="M722.9877 308.1553 L722.9877 330.3564 L601.7941 330.3564 L601.7941 337.8262" clip-path="url(#clipPath2)"/>
      <path d="M601.7941 345.8262 L606.7941 333.8262 L601.7941 336.8262 L596.7941 333.8262 Z" clip-path="url(#clipPath2)" stroke="none"/>
      <path fill="none" d="M1225.6932 308.1553 L1225.6932 323.6553 L1338.7889 323.6553 L1338.7889 337.8131" clip-path="url(#clipPath2)"/>
      <path d="M1338.7889 345.8131 L1343.7889 333.8131 L1338.7889 336.8131 L1333.7889 333.8131 Z" clip-path="url(#clipPath2)" stroke="none"/>
      <path fill="none" d="M2185.2449 308.1553 L2185.2449 323.6553 L2160.0894 323.6553 L2160.0894 331.125" clip-path="url(#clipPath2)"/>
      <path d="M2160.0894 339.125 L2165.0894 327.125 L2160.0894 330.125 L2155.0894 327.125 Z" clip-path="url(#clipPath2)" stroke="none"/>
      <path fill="none" d="M2821.0452 375.8564 L2821.0452 405.5576" clip-path="url(#clipPath2)"/>
      <path d="M2821.0452 413.5576 L2826.0452 401.5576 L2821.0452 404.5576 L2816.0452 401.5576 Z" clip-path="url(#clipPath2)" stroke="none"/>
    </g>
  </g>
</svg>
